HIERARCHY
ROOT Hips
{
 OFFSET 0.000000 0.000000 0.000000
 CHANNELS 6 Xposition Yposition Zposition Yrotation Xrotation Zrotation
 JOINT Chest
 {
  OFFSET 0.000000 10.383400 0.001500
  CHANNELS 3 Yrotation Xrotation Zrotation
  JOINT Chest2
  {
   OFFSET 0.000000 10.418200 -0.003100
   CHANNELS 3 Yrotation Xrotation Zrotation
   JOINT Chest3
   {
    OFFSET 0.000000 10.375100 0.000000
    CHANNELS 3 Yrotation Xrotation Zrotation
    JOINT Chest4
    {
     OFFSET 0.000000 10.364600 0.000000
     CHANNELS 3 Yrotation Xrotation Zrotation
     JOINT Neck
     {
      OFFSET 0.000000 15.642200 0.000000
      CHANNELS 3 Yrotation Xrotation Zrotation
      JOINT Head
      {
       OFFSET 0.000000 9.697300 -0.006500
       CHANNELS 3 Yrotation Xrotation Zrotation
       End Site
       {
        OFFSET 0.000000 18.492200 -0.003400
       }
      }
     }
     JOINT RightCollar
     {
      OFFSET -3.166800 10.349300 0.000000
      CHANNELS 3 Yrotation Xrotation Zrotation
      JOINT RightShoulder
      {
       OFFSET -14.729700 0.000000 0.000000
       CHANNELS 3 Yrotation Xrotation Zrotation
       JOINT RightElbow
       {
        OFFSET 0.000000 -32.224300 0.000000
        CHANNELS 3 Yrotation Xrotation Zrotation
        JOINT RightWrist
        {
         OFFSET 0.000000 -26.084100 0.000000
         CHANNELS 3 Yrotation Xrotation Zrotation
         End Site
         {
          OFFSET 0.000000 -19.319400 0.000000
         }
        }
       }
      }
     }
     JOINT LeftCollar
     {
      OFFSET 3.166800 10.349300 0.000000
      CHANNELS 3 Yrotation Xrotation Zrotation
      JOINT LeftShoulder
      {
       OFFSET 14.729700 0.000000 0.000000
       CHANNELS 3 Yrotation Xrotation Zrotation
       JOINT LeftElbow
       {
        OFFSET 0.000000 -32.224300 0.000000
        CHANNELS 3 Yrotation Xrotation Zrotation
        JOINT LeftWrist
        {
         OFFSET 0.000000 -26.084100 0.000000
         CHANNELS 3 Yrotation Xrotation Zrotation
         End Site
         {
          OFFSET 0.000000 -19.319400 0.000000
         }
        }
       }
      }
     }
    }
   }
  }
 }
 JOINT RightHip
 {
  OFFSET -8.428900 -0.007500 -0.000800
  CHANNELS 3 Yrotation Xrotation Zrotation
  JOINT RightKnee
  {
   OFFSET 0.000000 -43.834600 0.000700
   CHANNELS 3 Yrotation Xrotation Zrotation
   JOINT RightAnkle
   {
    OFFSET 0.000000 -42.757000 0.001200
    CHANNELS 3 Yrotation Xrotation Zrotation
    JOINT RightToe
    {
     OFFSET 0.000000 -6.946900 15.649300
     CHANNELS 3 Yrotation Xrotation Zrotation
     End Site
     {
      OFFSET 0.000000 -1.580800 6.825800
     }
    }
   }
  }
 }
 JOINT LeftHip
 {
  OFFSET 8.428900 -0.007500 -0.000800
  CHANNELS 3 Yrotation Xrotation Zrotation
  JOINT LeftKnee
  {
   OFFSET 0.000000 -43.834600 0.000700
   CHANNELS 3 Yrotation Xrotation Zrotation
   JOINT LeftAnkle
   {
    OFFSET 0.000000 -42.757000 0.001200
    CHANNELS 3 Yrotation Xrotation Zrotation
    JOINT LeftToe
    {
     OFFSET 0.000000 -6.946900 15.649300
     CHANNELS 3 Yrotation Xrotation Zrotation
     End Site
     {
      OFFSET 0.000000 -1.580800 6.825800
     }
    }
   }
  }
 }
}
MOTION
Frames: 6
Frame Time: 0.008333
22.292388 127.041130 -46.532741 -15.753874 -30.169948 -1.360630 -0.491934 20.260765 2.354064 -0.101272 2.598109 0.308578 -0.175082 4.191335 0.493194 -0.461091 17.432064 2.028640 0.755633 14.125307 -1.978982 2.185614 -9.510864 -4.015070 -6.622764 -1.680518 -5.743141 -19.496617 -10.896654 -4.453175 -152.565549 -57.196395 162.719558 -1.265704 -13.324023 -3.891857 0.459940 -3.655644 -0.281365 24.045065 -8.413650 11.720671 153.291144 -53.887928 -163.309366 -5.575973 -28.120535 18.501054 -1.918246 -39.861408 -3.862647 -19.735426 76.572456 -20.393954 3.562609 -4.058805 7.249923 -0.003272 -0.008387 -0.001452 -5.283927 -33.191980 -3.209910 -4.679901 68.693930 -2.103204 -13.200651 -4.474465 -5.534370 -0.004695 -0.004845 -0.002084
22.289219 127.041083 -46.525027 -15.749946 -30.134295 -1.363487 -0.491114 20.252929 2.361640 -0.091533 2.594994 0.303683 -0.184585 4.186527 0.499611 -0.448714 17.415859 2.022112 0.775655 13.973721 -2.040206 2.253297 -9.789054 -4.143770 -6.583034 -1.749823 -5.728820 -18.656955 -10.760861 -4.395209 -152.269611 -59.362779 161.773962 -1.220718 -12.925621 -3.493996 0.419260 -3.697127 -0.330072 23.196278 -8.369405 11.725368 152.192956 -56.270226 -162.174034 -5.561221 -27.538610 17.663919 -1.868733 -39.874791 -3.953281 -19.618150 76.597682 -20.205240 3.573865 -4.062547 7.238290 -0.002112 -0.007589 -0.000937 -5.246639 -33.227366 -3.202373 -4.797779 68.725663 -2.202531 -13.224903 -4.485927 -5.504644 -0.001252 -0.001582 -0.000556
22.285344 127.043097 -46.513910 -15.749115 -30.117805 -1.364339 -0.476067 20.265453 2.368865 -0.091635 2.584151 0.298911 -0.182361 4.184509 0.504175 -0.436843 17.395749 2.008140 0.789735 13.821810 -2.097231 2.308527 -10.068130 -4.262550 -6.552106 -1.832233 -5.722128 -17.851135 -10.640483 -4.297814 -151.695503 -61.758096 160.564419 -1.179535 -12.499577 -3.094407 0.338388 -3.749287 -0.381586 22.383356 -8.349415 11.740724 150.909591 -58.819221 -160.779189 -5.619673 -26.996264 16.813578 -1.830608 -39.867082 -4.027348 -19.524541 76.623948 -20.055122 3.583268 -4.081512 7.223997 0.001654 -0.010746 0.000734 -5.220290 -33.239832 -3.200352 -4.862584 68.758706 -2.256096 -13.230712 -4.507849 -5.480961 0.000317 -0.001801 0.000141
22.284378 127.042360 -46.506978 -15.732453 -30.068173 -1.365123 -0.444051 20.272877 2.356484 -0.130375 2.531805 0.319201 -0.135999 4.199847 0.474510 -0.443944 17.360190 2.018181 0.799389 13.669878 -2.151425 2.354601 -10.347563 -4.374473 -6.529223 -1.918568 -5.721809 -17.107028 -10.548978 -4.159018 -150.760553 -64.374501 159.017567 -1.138613 -12.018001 -2.691334 0.245301 -3.792590 -0.405632 21.604020 -8.353126 11.728963 149.480472 -61.512590 -159.152989 -5.753501 -26.469044 15.961389 -1.811626 -39.896027 -4.097767 -19.438366 76.668813 -19.919340 3.576935 -4.120707 7.204735 0.009853 -0.008040 0.004373 -5.205204 -33.287266 -3.206563 -4.919607 68.783255 -2.299020 -13.232470 -4.522036 -5.461484 0.002686 -0.001184 0.001192
22.282657 127.040749 -46.502128 -15.718902 -30.006974 -1.372848 -0.427454 20.233409 2.349705 -0.129060 2.529895 0.321603 -0.146849 4.180994 0.480623 -0.422506 17.331505 1.994575 0.805467 13.519648 -2.204733 2.393916 -10.623917 -4.483606 -6.507962 -2.001420 -5.726078 -16.425419 -10.492924 -3.989181 -149.358908 -67.187154 157.013404 -1.100850 -11.441082 -2.268245 0.151873 -3.837838 -0.418394 20.861611 -8.371999 11.706987 147.903333 -64.330686 -157.298548 -5.980754 -25.917110 15.132836 -1.798470 -39.943915 -4.144252 -19.352136 76.687730 -19.802607 3.573990 -4.081049 7.222080 0.009543 -0.003379 0.004236 -5.197648 -33.345512 -3.200443 -4.969851 68.806790 -2.335972 -13.230942 -4.538617 -5.441898 0.004322 -0.000309 0.001918
22.283639 127.034477 -46.505171 -15.688338 -29.894069 -1.387940 -0.429576 20.136690 2.337051 -0.124329 2.527285 0.323637 -0.158355 4.166575 0.490008 -0.408943 17.292908 1.962222 0.810241 13.371610 -2.257952 2.430892 -10.896197 -4.592295 -6.467463 -2.076340 -5.728405 -15.795507 -10.473540 -3.807801 -147.287668 -70.159244 154.322755 -1.046045 -10.742473 -1.806312 0.071778 -3.891118 -0.425908 20.156967 -8.410931 11.676981 146.122082 -67.277571 -155.181200 -6.313617 -25.318756 14.375000 -1.815316 -40.048156 -4.166553 -19.312931 76.704137 -19.748722 3.568669 -4.064177 7.230119 0.014154 -0.004732 0.006283 -5.221624 -33.462275 -3.185988 -5.001022 68.832532 -2.364391 -13.221520 -4.555606 -5.420898 0.002592 0.002351 0.001151
